/* XPM */
static char *result[] = {
/* columns rows colors chars-per-pixel */
"33 27 9 1 ",
"  c black",
". c #281400",
"X c #482400",
"o c gray50",
"O c #ED1C24",
"+ c #FFC90E",
"@ c #99D9EA",
"# c #C3C3C3",
"$ c None",
/* pixels */
"$$$$$X$$$$$$$$$$$$$$$$$$$$$X$$$$$",
"$$$$OO$$$$$$$$$$$$$$$$$$$$OO$$$$$",
"$$$OOX$$$$$$$$$$$$$$$$$$$OOX$$$$$",
"$$$$$X$$$$$$$$$$$$$$$$$$$$$X$$$$$",
"$$$$$.$$$$$$$$$$$$$$$$$$$$$.$$$$$",
"$$$$XXX$$$$$$$$$$$$$$$$$$$XXX$$$$",
"$$$.....$$$$$$$$$$$$$$$$$.....$$$",
"$$.XXXXX.$$$$$$$$$$$$$$$.XXXXX.$$",
"$X.......X$$$$$$$$$$$$$X.......X$",
"..XXXXXXX..$$$$$$$$$$$..XXXXXXX..",
"$.........$$$$$$$$$$$$$.........$",
"$ooooooooo$$$$$$$$$$$$$ooooooooo$",
"$oo oooo##$$$$$$$$$$$$$oo oooo##$",
"$# @ oo##o$$$$$$$$$$$$$# @ oo##o$",
"$## oooooo$$$$$$$$$$$$$## oooooo$",
"$o#oooo oo$oo$oo$oo$oo$o#oooo oo$",
"$ooooo @ ooooooooooooooooooo @ o$",
"$o#oooo ##o#ooo##oo##ooo#oooo ##$",
"$## ooooo###oo##oooo##o## ooooo#$",
"$# @ oooooooooooooooooo# @ ooooo$",
"$oo oo##ooooooo.X.ooooooo oo##oo$",
"$oooo##ooo##ooX.X.Xoo#ooooo##ooo$",
"$ooooooo##o##oX.X.Xo##oooooooo##$",
"$#oooooo#oooooX+X+Xo#oo#oooooo#o$",
"$##oo##oooooooX.X.Xoooo##ooooooo$",
"$o#ooo##oo$$$$$$$$$$$$$o#o##oooo$",
"$$ooooooo$$$$$$$$$$$$$$$oo#oooo$$"
};
