/* XPM */
static char *result[] = {
/* columns rows colors chars-per-pixel */
"64 52 137 2 ",
"   c #1C1E1F",
".  c #261200",
"X  c #2B1500",
"o  c #2F1800",
"O  c #311700",
"+  c #341A00",
"@  c #3B1D00",
"#  c #3C2500",
"$  c #35200C",
"%  c #352413",
"&  c #1F2122",
"*  c #1F2729",
"=  c #232324",
"-  c #22292B",
";  c #2A2B2B",
":  c #312F2F",
">  c #2B3233",
",  c #293639",
"<  c #333334",
"1  c #393737",
"2  c #3A3837",
"3  c #333B3C",
"4  c #3B3B3B",
"5  c #411F00",
"6  c #442300",
"7  c #492400",
"8  c #532403",
"9  c #5C2304",
"0  c #502D00",
"q  c #533001",
"w  c #5D3700",
"e  c #652307",
"r  c #75220A",
"t  c #79220B",
"y  c #643E02",
"u  c #423426",
"i  c #553C26",
"p  c #583F25",
"a  c #403E3E",
"s  c #6B4602",
"d  c #6B4A04",
"f  c #5A4127",
"g  c #55422E",
"h  c #5B432A",
"j  c #55493E",
"k  c #5F4F3F",
"l  c #343F42",
"z  c #3E4243",
"x  c #35464B",
"c  c #3F4648",
"v  c #36494E",
"b  c #3C494D",
"n  c #434444",
"m  c #484746",
"M  c #494847",
"N  c #434748",
"B  c #434A4C",
"V  c #4C4B4B",
"C  c #574B40",
"Z  c #514F4F",
"A  c #404F53",
"S  c #494E50",
"D  c #4F5252",
"F  c #42545A",
"G  c #535353",
"H  c #5A5755",
"J  c #5B5B5B",
"K  c #605040",
"L  c #625B55",
"P  c #645F5A",
"I  c #6D6053",
"U  c #455D63",
"Y  c #4D5C60",
"T  c #575F61",
"R  c #5A5F60",
"E  c #456067",
"W  c #466169",
"Q  c #4A646B",
"!  c #596467",
"~  c #536368",
"^  c #4C6A72",
"/  c #526B72",
"(  c #55777F",
")  c #636363",
"_  c #6C6762",
"`  c #6B6B6B",
"'  c #736F6B",
"]  c #76706A",
"[  c #6E7374",
"{  c #747474",
"}  c #7A7775",
"|  c #777778",
" . c #777A7A",
".. c #7E7E7E",
"X. c #B61F18",
"o. c #BD1E19",
"O. c #89210E",
"+. c #962011",
"@. c #9B2013",
"#. c #C31E1B",
"$. c #CD1E1D",
"%. c #D31D1E",
"&. c #DC1D20",
"*. c #E11D21",
"=. c #ED1C24",
"-. c #F31C25",
";. c #986E04",
":. c #9D7407",
">. c #807F7F",
",. c #B98B07",
"<. c #C09109",
"1. c #567780",
"2. c #7F7F80",
"3. c #5D838D",
"4. c #7F8080",
"5. c #66909B",
"6. c #69939E",
"7. c #6B97A3",
"8. c #709EAB",
"9. c #75A5B2",
"0. c #7AADBA",
"q. c #828282",
"w. c #8B8B8B",
"e. c #8D8F90",
"r. c #8E9091",
"t. c #939393",
"y. c #959698",
"u. c #979898",
"i. c #9B9B9B",
"p. c #9E9FA0",
"a. c #A3A3A3",
"s. c #ABABAB",
"d. c #B3B3B3",
"f. c #BCBCBC",
"g. c #C2C2C2",
"h. c #C9C9C9",
"j. c None",
/* pixels */
"j.j.j.j.j.j.j.j.j.j.6 6 j.j.j.j.j.j.j.j.j.j.j.j.j.j.j.j.j.j.j.j.j.j.j.j.j.j.j.j.j.j.j.j.j.j.j.j.j.j.j.j.# 6 j.j.j.j.j.j.j.j.j.j.",
"j.j.j.j.j.j.j.j.j.@.t r j.j.j.j.j.j.j.j.j.j.j.j.j.j.j.j.j.j.j.j.j.j.j.j.j.j.j.j.j.j.j.j.j.j.j.j.j.j.j.j.O.r j.j.j.j.j.j.j.j.j.j.",
"j.j.j.j.j.j.j.j.=.&.%.$.j.j.j.j.j.j.j.j.j.j.j.j.j.j.j.j.j.j.j.j.j.j.j.j.j.j.j.j.j.j.j.j.j.j.j.j.j.j.j.=.&.$.j.j.j.j.j.j.j.j.j.j.",
"j.j.j.j.j.j.j.=.=.&.#.o.j.j.j.j.j.j.j.j.j.j.j.j.j.j.j.j.j.j.j.j.j.j.j.j.j.j.j.j.j.j.j.j.j.j.j.j.j.j.=.=.%.#.j.j.j.j.j.j.j.j.j.j.",
"j.j.j.j.j.j.=.-.=.X.r 9 j.j.j.j.j.j.j.j.j.j.j.j.j.j.j.j.j.j.j.j.j.j.j.j.j.j.j.j.j.j.j.j.j.j.j.j.j.=.-.*.@.e j.j.j.j.j.j.j.j.j.j.",
"j.j.j.j.j.j.=.-.=.+.8 # j.j.j.j.j.j.j.j.j.j.j.j.j.j.j.j.j.j.j.j.j.j.j.j.j.j.j.j.j.j.j.j.j.j.j.j.j.=.-.%.t 7 j.j.j.j.j.j.j.j.j.j.",
"j.j.j.j.j.j.j.j.j.e 7 6 j.j.j.j.j.j.j.j.j.j.j.j.j.j.j.j.j.j.j.j.j.j.j.j.j.j.j.j.j.j.j.j.j.j.j.j.j.j.j.j.9 6 j.j.j.j.j.j.j.j.j.j.",
"j.j.j.j.j.j.j.j.j.j.@ @ j.j.j.j.j.j.j.j.j.j.j.j.j.j.j.j.j.j.j.j.j.j.j.j.j.j.j.j.j.j.j.j.j.j.j.j.j.j.j.j.@ @ j.j.j.j.j.j.j.j.j.j.",
"j.j.j.j.j.j.j.j.j.j.X X j.j.j.j.j.j.j.j.j.j.j.j.j.j.j.j.j.j.j.j.j.j.j.j.j.j.j.j.j.j.j.j.j.j.j.j.j.j.j.j.X X j.j.j.j.j.j.j.j.j.j.",
"j.j.j.j.j.j.j.j.j.# + @ j.j.j.j.j.j.j.j.j.j.j.j.j.j.j.j.j.j.j.j.j.j.j.j.j.j.j.j.j.j.j.j.j.j.j.j.j.j.j.j.@ @ @ j.j.j.j.j.j.j.j.j.",
"j.j.j.j.j.j.j.j.7 7 7 7 7 7 j.j.j.j.j.j.j.j.j.j.j.j.j.j.j.j.j.j.j.j.j.j.j.j.j.j.j.j.j.j.j.j.j.j.j.j.7 7 7 6 7 7 j.j.j.j.j.j.j.j.",
"j.j.j.j.j.j.j.o + @ + @ + + j.j.j.j.j.j.j.j.j.j.j.j.j.j.j.j.j.j.j.j.j.j.j.j.j.j.j.j.j.j.j.j.j.j.j.j.+ + @ @ @ @ + j.j.j.j.j.j.j.",
"j.j.j.j.j.j.X . X X X X X X . X j.j.j.j.j.j.j.j.j.j.j.j.j.j.j.j.j.j.j.j.j.j.j.j.j.j.j.j.j.j.j.j.X . X X X X X X X . j.j.j.j.j.j.",
"j.j.j.j.j.X @ @ @ @ @ + @ @ @ + X j.j.j.j.j.j.j.j.j.j.j.j.j.j.j.j.j.j.j.j.j.j.j.j.j.j.j.j.j.j.X + @ @ @ + + @ @ @ @ + j.j.j.j.j.",
"j.j.j.j.X + 6 6 6 6 6 6 6 6 6 + X j.j.j.j.j.j.j.j.j.j.j.j.j.j.j.j.j.j.j.j.j.j.j.j.j.j.j.j.j.j.X + 6 6 6 7 7 5 7 6 # + . j.j.j.j.",
"j.j.j.@ X X + + + + + @ + + @ X X + 7 j.j.j.j.j.j.j.j.j.j.j.j.j.j.j.j.j.j.j.j.j.j.j.j.j.j.7 + X X @ + + + + + + + + X X @ j.j.j.",
"j.j.6 @ o X X o X o X X X X X X X @ 7 j.j.j.j.j.j.j.j.j.j.j.j.j.j.j.j.j.j.j.j.j.j.j.j.j.j.7 + X X X o X X X X X X X X + @ 7 j.j.",
"X X + @ @ @ @ @ @ @ # @ @ @ @ @ @ @ + X X j.j.j.j.j.j.j.j.j.j.j.j.j.j.j.j.j.j.j.j.j.j.. O + @ @ @ @ # @ @ @ # @ @ @ @ @ @ + X . ",
". X . + @ 7 6 6 6 6 6 6 6 6 6 6 6 + X . X j.j.j.j.j.j.j.j.j.j.j.j.j.j.j.j.j.j.j.j.j.j.X . X O 6 6 6 7 5 6 6 6 6 7 6 6 5 o X X . ",
"j.. . . O O X + O O O O O O O O O X . . j.j.j.j.j.j.j.j.j.j.j.j.j.j.j.j.j.j.j.j.j.j.j.j.. . X O O O O O O O O O O O O X . . . j.",
"j.j.% % % % % % % % % % % % % % % % % j.j.j.j.j.j.j.j.j.j.j.j.j.j.j.j.j.j.j.j.j.j.j.j.j.j.% % % % % % % % % % % % % % % % % j.j.",
"j.j.P P L P P P L L L L L P L L L H L j.j.j.j.j.j.j.j.j.j.j.j.j.j.j.j.j.j.j.j.j.j.j.j.j.j.P P L P P P L L L L L L L L H L L j.j.",
"j.j.2.4.q.| ` ] >.q.>.>.>.>.>.q.w.w.e.j.j.j.j.j.j.j.j.j.j.j.j.j.j.j.j.j.j.j.j.j.j.j.j.j.j.4.>.q.{ ` } 2.q.q.>.>.>.q.w.w.w.w.j.j.",
"j.j.q.q.q.) ; n | q.q.q.q.>.q.u.d.d.d.j.j.j.j.j.j.j.j.j.j.j.j.j.j.j.j.j.j.j.j.j.j.j.j.j.j.q.q.4.V ; G q.q.q.q.2.q.q.a.d.d.d.j.j.",
"j.j.w.q.` V , z J [ | q.>.q.t.s.g.f.d.j.j.j.j.j.j.j.j.j.j.j.j.j.j.j.j.j.j.j.j.j.j.j.j.j.j.w.| ) z , B ) { ....>.q.i.d.g.f.d.j.j.",
"j.j.f.q.< x 5.1.> 4 { q.>.u.d.f.g.s.t.j.j.j.j.j.j.j.j.j.j.j.j.j.j.j.j.j.j.j.j.j.j.j.j.j.j.s.` ; E 7.U = G ..q.w.a.d.g.f.p.r.j.j.",
"j.j.h.u.M F 6.1.> l { q.q.u.d.f.d.u.>.j.j.j.j.j.j.j.j.j.j.j.j.j.j.j.j.j.j.j.j.j.j.j.j.j.j.g...4 ^ 7.U ; Z ..q.q.a.d.d.s.w...j.j.",
"j.j.g.f.p.[ x 3 J ]  ...q.q.w.e.w.q.>.j.j.j.j.j.j.j.j.j.j.j.j.j.j.j.j.j.j.j.j.j.j.j.j.j.j.g.d.y.! , c ) { ..>.q.w.t.t.w.q.>.j.j.",
"j.j.d.f.g.r.2 4 } q.>.q.>.` H ` ..>.>.j.j.j.j.j.j.j.j.j.j.j.j.j.j.j.j.j.j.j.j.j.j.j.j.j.j.d.g.g.' ; G ..q.q.q.| ) J { >.>.>.j.j.",
"j.j.w.i.f.s.} ` ..q.q.q...V = n  .q.>.j.j.j...>.q.j.j...q.....j.j.>.>.>.>.j.j.>.>.>.j.j.j.w.s.f.y.` { ....q.q.{ 1 = H q.q.>.j.j.",
"j.j...w.a.p.w.>...>...` G A v b G `  .q.j.>.......q.j.q.......j.j.>.......j.......>.>.j.| q.y.a.i.q.>...q.| ) D b v B J { ..j.j.",
"j.j.>.q.q.w.>.>...q...V = U 9.^ = m  .q.>.>.>.................q.>.>.q...4.......>.>.>.>.....q.w.q.q.>...q.{ 1 - 3.8.v = J q.j.j.",
"j.j.>.q.r.r.q.q.>.>.>.J < F 3./ Z ] t.w.>.w.t.w.>.>.>.>.>.t.u.i.t.q.....q.y.u.u.w.>...>.....w.t.w.q.q.>.q.} n 3 ^ 3.F H q.u.j.j.",
"j.j.>.t.d.s.w. ...>.>. .' n - R a.f.d.u.w.a.d.u.>. .>.>.w.s.f.f.s.w.....t.d.f.f.s.q...>...q.i.d.p.>...>.q...| ) < > } d.f.f.j.j.",
"j.j.i.s.g.p.J H  .q.>.q.4.J 2 ` s.g.g.s.p.d.f.i.>. .q.y.s.f.g.d.p.w. ...w.a.d.g.f.p.w.>.w.i.f.g.q.Z ) >.q.4.q.| N z q.d.g.h.j.j.",
"j.j.f.g.f.q.; < ` q.>.>.>. .{ } w.a.g.g.f.g.f.u.>.>.q.s.f.g.d.y.q.q.>.>.q.q.i.f.g.f.a.w.u.d.g.d.) & N } 4.>.q...} }  .t.d.g.j.j.",
"j.j.h.s. .! Q F B J } >.>.>.>.>.>.t.a.a.s.s.p.r.>. .q.i.s.s.p.q.>.>.q.>.....w.i.s.s.t.q.a.g.i.` ~ Q b V ) 4.>.....q...q.i.a.j.j.",
"j.j.g.r.< v 9.3.* < { q.>.q.q.>...>.q.q.q.q.q.q.>.>.q.q.q.>.>.>. ... .>.>.>.q.q.q.q.>.q.a.d.` = ^ 0.E   V ..q.q.q.q...q.q.q.j.j.",
"j.j.a.q.V c ^ E z D | r.i.a.p.t.q...>... . .| ....>.>.q.{ H C K K k H } q.>.>.....|  ...t.i.' z F ^ F n J 4.t.a.a.i.w.......j.j.",
"j.j.q.q. .G & < ` >.q.i.f.g.f.p.q...>.>.q.q.q.q.>.>.>.>.` u O 6 6 + u _ >.>.>.>.q.q.q...q.4.>.{ z   n } 4.w.s.f.g.d.t.......j.j.",
"j.j...>.q.` M G  .t.a.f.g.f.a.e...| >.t.a.s.i.w.2.2.} I g $ X @ @ X @ j I } >.2.w.i.u.q. .>.q.>.J N I q.y.s.g.g.d.i.w.| ..>.j.j.",
"j.j.>...>.....| >.u.d.g.f.p.q.q.q.q.w.a.f.g.f.i.q.q.] f 6 + o 6 # X X 5 f ] q.q.i.f.s.q...>.>.>... .2.q.p.f.g.d.y.q.q.q.q.q.j.j.",
"j.j.>...>.>.>.q.>.w.i.p.i.w.>.r.a.s.s.p.a.d.g.d.a.e.] p @ . X @ @ X X @ p ' e.p.d.g.s.w. .>...>.q.q.>.q.r.i.p.u.q.q.u.s.s.s.j.j.",
"j.j.w.q.>.>.>.>.>.>.>.>.>...q.p.g.g.d.u.w.a.f.g.d.y.] p 7 6 # 7 6 6 6 7 p ' i.f.g.f.a.q.q.q.q.>.2.2.>.>.>.q.>.>...w.s.g.f.f.j.j.",
"j.j.s.i.q.>.>.>.>.....| ..| q.a.g.d.i.w.q.w.i.i.u.w.' i w :.:.y y :.;.w i ' i.f.f.a.w.q.t.a.t.>...2...2...........w.d.f.s.u.j.j.",
"j.j.g.d.t.q.>...>.q.q.w.w.q.q.i.d.i.q...>.....>.2.q.' i y ,.,.s s <.,.y i ' y.d.s.q.| q.p.f.s.w.>.....>...........q.s.d.r...j.j.",
"j.j.h.g.d.p.q...>.r.s.s.s.t.q.w.t.w.....>.........q.] p 0 s d q q d s 0 p ' w.t.w.q.| q.p.g.f.s.t.q...........>...q.r.t.q...j.j.",
"j.j.d.f.g.s.w. ...y.d.g.g.s.w.q.......>.....>...>.q.] f 5 X X 6 6 X X 5 f ] q.>.>.>...q.i.d.g.g.a.q.q.w.w.w.q...>.>.>.>.q.>.j.j.",
"j.j.t.a.g.d.w. .>.q.t.s.g.f.d.u.......>.j.j.j.j.j.j.j.j.j.j.j.j.j.j.j.j.j.j.j.j.j.j.j.j.w.u.s.f.a.q.i.s.d.s.t.>...>.....4.>.j.j.",
"j.j. .t.s.a.q.>.>.>.>.u.d.f.d.u.q...>.j.j.j.j.j.j.j.j.j.j.j.j.j.j.j.j.j.j.j.j.j.j.j.j.j.j.q.i.d.y.q.a.g.f.d.t.>...>...>.4.>.j.j.",
"j.j.j.j.r.w.q.>.>.>.>.q.r.t.r.w.q...j.j.j.j.j.j.j.j.j.j.j.j.j.j.j.j.j.j.j.j.j.j.j.j.j.j.j.j.w.r.w.q.a.g.s.t.q.>.>.>...4.j.j.j.j.",
"j.j.j.j...>.>.>.>.>.>....... ...>.j.j.j.j.j.j.j.j.j.j.j.j.j.j.j.j.j.j.j.j.j.j.j.j.j.j.j.j.j.j.....q.a.f.i.>.....>.>.>...j.j.j.j."
};
