/* XPM */
static char *result[] = {
/* columns rows colors chars-per-pixel */
"34 34 6 1 ",
"  c #BBA226",
". c #B5E61D",
"X c #E9DA94",
"o c #EFE4B0",
"O c #99D9EA",
"+ c #BCE7F1",
/* pixels */
"Xooooooooooooooooooooooooooooooooo",
"oXooooooooooooooooooooooooooXXXXoo",
"ooXooooooooooooooooooooooooXooooXX",
"oooXooooooooooooooooooooooXooo.ooo",
"oooooooooooooooooooooooooXooo. .oo",
"ooooooooooXXXXoooooooooXXooooo ooo",
"ooooooXXXXooooXXooooooXooooooo ooo",
"oooooXooooooooooXooooooooooooooooo",
"oooooooooooooooooooooooooooooooooo",
"oooooooooooooooooooooooooooooooooo",
"oooooooooooXXXXooooooooooooooooooo",
"oooooooooXXo.ooXoooooooooooooooooo",
"ooooooooXoo. .ooXooooooooooooooooo",
"oooooooXoooo ooooXXooooooooooooooo",
"oooooooooooo ooooooXoooooooooooooo",
"ooooooooooooooOOoooooooooooooooooo",
"ooooooooooooo++OOooooooooooooooooo",
"oooooooooooooo+++ooooooooooooooooo",
"oooXXXXXoooooooooooooooooooooooooo",
"ooXoooooXooooooooooooooooooooooXXX",
"oooooooooXXoooooooooooooooooooXooo",
"oooooooooooXXXoooooXXXoooooooooooo",
"ooooooooooooooooooXoooXooooooooooo",
"oooooooooooooooooXoooooXXooooooooo",
"ooooooooooooooooXooooooooXoooooooo",
"ooooooooooooooXXooooooooooXXoooooo",
"oooooooooooooooooooooooooooooooooo",
"ooooooo.ooooooooooooooooooooooooXo",
"oooooX. .ooooooooooooooooooooooXoo",
"oooXXoo oXooooooooooooooooooooXooo",
"ooXoooo ooXXoooooooooooooooooXoooo",
"ooXoooooooooXXXXooooooooooooXooooo",
"oXoooooooooooooooooooooooooXoooooo",
"oooooooooooooooooooooooooooooooooo"
};
