/* XPM */
static char *result[] = {
/* columns rows colors chars-per-pixel */
"34 34 5 1 ",
"  c #ED1C24",
". c #FF7F27",
"X c #1D9441",
"o c #FFF200",
"O c #00A2E8",
/* pixels */
"XXXXXXXXXXXXXXXXXXXXXXXXXXXXXoXXXX",
"XXXXX.XXXXXXXXXXXXXXXXXXXXXXXXXXXX",
"XXoXXXXXXXXXXXXXXXXX XXXXXXXXXXXXX",
"XXXXXXXXXXXoXXXXOXXXXXXXXXXXXXXXXX",
"XXXXXXXXXXXXXXXXXXXXXXXXX.XXXX.XXX",
"XXXXXXXXXXXXXXXXXXXXXXXXXXXXXXXXXX",
"XXXX.XXXXXXX.XXXXXXXXXoXXXXXXXXXXX",
"X XXXXXXOXXXXXXXX XXXXXXXXXXX XXXX",
"XXXXXXXXXXXXXXXXXXXXXXXXXXXXXXXXXX",
"XXXXXXXXXXXXXXXXXXXXXXXXXXXXXXXXXX",
"XXXXXXXXXXXXXXXXXXX.XXXXXXXXXXXXXX",
"XXXXX.XXXXXXXXXXXXXXXXXXX.XXXXXXXX",
"XXXXXXXXXXXXXOXXXXXXXXXXXXXXXXXXXX",
"XXXXXXXXXXXXXXXXXXXXXXXXXXXXXXXXXX",
"XXXXXXXXXXXXXXXXXXXXXXXXXXXXXXXXXX",
"XXX XXXXXXXXXXXXXoXXXXXXXXXoXXXOXX",
"XXXXXOXXXXXX XXXXXXXXXXXXXXXXXXXXX",
"XXXXXXXXXXXXXXXXXXXXX.XXXXXXXXXXXX",
"XXXXXXXXX.XXXXXXXXXXXXXXXXXXXXXXXX",
"XXXXXXXXXXXXXXXXXXX XXXXXXXXXXXXXX",
"XoXXXXXXXXXXXXXXXXXXXXXXXXXX.XXXXX",
"XXX.XXXXXXoXXXXXXXXXXXXXOXXXXXXXXX",
"XXXXXXXXXXXXXXXXXXXXXXXXXXXXXXXXXX",
"XXXXXXXXXXXXXXX.XXXXoXXXXXXXXXXXoX",
"XXXXXXXXXXXXXXXXXXXXXXXXXXXXXXXXXX",
"XOXXXXXXXXXXXXXXXXXXXXXXXXXXXXXXXX",
"XXXXXXXXXXXOXXXXXXXXXXXXXX.XXXXXXX",
"XXXXXXX.XXXXX XXXXXX.XXXXXXXXXXXXX",
"XXXXXXXXXXXXXXXXXXXXXXXXXXXXXXXXXX",
"XXXXXXXXXXXXXXXXXXXXXXXXXXXXXXXXXX",
"XX.XXXOXXXXXXXXXXXXXXXXXXOXXXXXXXX",
"XXXXXXXXXXXXXX.XXXXXXXXXXXXXXXXX.X",
"XXXXXXXXXX XXXXXXXXXXXX XXXXXXXXXX",
"XXXXXXXXXXXXXXXXXXXXXXXXXXXXXXXXXX"
};
