/* XPM */
static char *result[] = {
/* columns rows colors chars-per-pixel */
"64 64 107 2 ",
"   c #7C5D33",
".  c #5D6F38",
"X  c #457D37",
"o  c #4F773A",
"O  c #447D3B",
"+  c #4B793A",
"@  c #54753A",
"#  c #5A7139",
"$  c #6D6636",
"%  c #656B37",
"&  c #696937",
"*  c #616D38",
"=  c #746235",
"-  c #B23E2C",
";  c #BA392B",
":  c #964E30",
">  c #984D30",
",  c #8D5331",
"<  c #825A33",
"1  c #A5462E",
"2  c #AA432D",
"3  c #1D943E",
"4  c #2D8B3F",
"5  c #35863E",
"6  c #3A833D",
"7  c #31893E",
"8  c #24973F",
"9  c #2D933F",
"0  c #27983E",
"q  c #2B9A3D",
"w  c #33923E",
"e  c #3A913E",
"r  c #329D3B",
"t  c #3FA237",
"y  c #3CA138",
"u  c #40803C",
"i  c #4E8F3B",
"p  c #538F3B",
"a  c #5B8E3A",
"s  c #45903C",
"d  c #4B903C",
"f  c #638D39",
"g  c #6C8D38",
"h  c #748C37",
"j  c #7B8B36",
"k  c #5EAF2F",
"l  c #44A436",
"z  c #4AA734",
"x  c #52AA32",
"c  c #59AD30",
"v  c #63B12D",
"b  c #6DB52A",
"n  c #7ABB26",
"m  c #71B729",
"M  c #73B828",
"N  c #169442",
"B  c #1D9441",
"V  c #179842",
"C  c #1C954B",
"Z  c #1A9653",
"A  c #159952",
"S  c #19965B",
"D  c #268F40",
"F  c #288E40",
"G  c #239340",
"H  c #299340",
"J  c #179765",
"K  c #189760",
"L  c #169769",
"P  c #15986D",
"I  c #149873",
"U  c #13997B",
"Y  c #848B35",
"T  c #8B8A34",
"R  c #938934",
"E  c #9A8833",
"W  c #B6862F",
"Q  c #BB852F",
"!  c #A58731",
"~  c #A18832",
"^  c #B38630",
"/  c #82BE24",
"(  c #C5842E",
")  c #CB842D",
"_  c #96C61E",
"`  c #98C71E",
"'  c #9FCA1C",
"]  c #A2CB1B",
"[  c #AED017",
"{  c #B3D216",
"}  c #BED713",
"|  c #8CC221",
" . c #CCDD0F",
".. c #C6DA10",
"X. c #C8DB10",
"o. c #EBEA06",
"O. c #0F9B87",
"+. c #0E9B8A",
"@. c #129A84",
"#. c #119A8A",
"$. c #0F9B91",
"%. c #0E9B9A",
"&. c #0C9CA3",
"*. c #0B9DAC",
"=. c #099EB4",
"-. c #089EBA",
";. c #069FC4",
/* pixels */
"B B B B B B B B B N N B B B B B B B G B B B B B B D B B B B B B B B B B G B B B B B B B B B B B B B B B N G | o._ 0 N B B B B B ",
"B B B B N B B B D s a e B B B B B B B B B B B B B B B B B B G B B B B B B B B V B B B B B B B B B B B B N G b [ b 8 B B B B B B ",
"B B B B B B B N 9 T Q g B N B B B B B B B B B B B B B B B B B B B B B B B 3 B B B B B B D B B B B B B B 3 B r s r B B B B B B B ",
"B B B t v x 8 N 8 j ! a B B B B B B B B B N B B B B B B B B 3 3 B B B B B u * + 3 B B B B B B B B B B G V V 3 N B B B B B B B B ",
"B B B v X._ q N B w 7 H B B B B B B B B B G B B B B B B B B B B B B G V B $ ; < D N B B B B B B B B B B B B B B B B B B B B B B ",
"B N B x ` M 0 B B V V B B B 3 B B B B B l M c 8 B B B D B C U U Z 3 B V B # , % 8 B B B B B B B B B B B B B B B B N B B B B B G ",
"B B B G q 0 B B B B B B B B B B B B N B m  ._ 0 N B B B 3 S *.-.J 3 3 B B D 4 D B B B B B B B 8 G B B B B B B B B G G B B B B B ",
"B B B B B N B B B B B G B B B B B B B B x | v 8 N B B B 3 Z @.#.Z 3 B B B B V V B B B B B B w j j w B B B B B G a Y p B B B B B ",
"B B B B B B B B B B B B B B B B B B B B G 0 8 B B B B B B 3 C C B B B B B B B B B B D B B N s W W s N B B B B 0 T ) j B B B B B ",
"B B B B B B B B N B B B B B B B B B B B B N N N B B B B B 3 3 8 B B B B B B B B B N N C B B w g h w B B B B B G a Y i B B B B B ",
"B B B B B B B H w H B B B B B B 3 B B B B B D w 8 B B B B B B B B B G B G B B B 3 q q 0 B B B G B B B B B B B B B B B B B B B B ",
"B B V N B B G f E f G B B B 3 8 8 B B B B B f ~ g D B B B B B B V N B B B B B N 0 M ' k B B B B B B B B B B V N N B B B B B B B ",
"B 9 5 5 3 N G Y ( j B B B B B Z Z C B B N G j ( j G B B B B B G 5 F D B B B B N 0 |  .b 3 N B B B B B B B B 4 5 4 B B B B B B B ",
"V + > < 4 N G s f s G B 3 3 S &.%.S 3 3 B 3 s a s G B B B B V O : : 6 V B B B B 8 z v e B B B B B B B B N G % 1 $ D V B B B B B ",
"V o 2 : 5 N B B N B B B 3 3 S *.*.S 3 B B B B B B B B B B B V + 1 > 6 V B B B B B B N B B B B B B B B B V G = - = D V G B G B B ",
"B F + O 8 B B N B B B B B B C J J C 3 B B B B N B B B B B B B F + O F B B B B B B B N B B B B B B B B B B B 5 o 6 B V B B B B B ",
"B B B V B B B B B B B B B B B 3 8 3 B B B B B G B B B G B B B B V V B B B N B B B B B G 3 B B B B B B B B B B V 3 B B B B B B B ",
"B B V B B B B G B B B B B B B B B B B B B B B B B B B B B B B B B B B B N B B B B B B B B B B B B G B B B B B V B B B B B B G B ",
"B B B B B B B B B B B B B G B B B B B B B B B B B B B G B B B B B B B e a i G B B B B B B B B B B B B B B B B G B B B B B B B B ",
"B B B B B B B B B B B B B B B B B B B B B B B B B B B B B B B B B B 3 f ( R 9 N B B B B B B B B B B B B B B B B B B G B B B B B ",
"B B B B B B G B G p g s B B B B B B G B B B G B B 3 B B B B B B B B B p E j H B B G B B B N 9 f f w N B B B B B B B B B B B B G ",
"B G B B B B B N H R ) g B B B B B B B B B B B B B B B B G B B B B B B G w 9 B B B B B B B N s W W s N B B B B B B B B B B B B B ",
"B B B B B B B N G g R p B B B B B B B B B B 3 B P #.J B 3 B B B B B B B N V B G B B B B B B e Y Y e B B B B B B B B B G B B B B ",
"B B B B B B B B B G H G B B B B B B B B B B 3 C $.;.@.B 3 B B B B B B B B B B B B B B B B B G H 8 G B B B B B B B B B B B B B B ",
"B B B B B B B B B B N B B B B B B B G B B B 3 B I $.L B B B B B B B B D B B B B B B B B B G B V N B B B B B B B B G B B B B B B ",
"B B B G B B B B B B B B B B B G B B B B B B B B B B B G B B B B B B B B B B B B B B B B B B B B B B B B B B B B B B B B G B B B ",
"B B B B V 3 V 3 B B B B B B B B B B B B B B B B B 3 B B B B B B N N B B B B B B B B B B B B B B B B B N B B B B B B 3 3 3 B B B ",
"B B B B N 4 7 4 B B B B B B B G B B B B B B B B B B B B B B B 8 r r 8 B B B B B B B G B B B B B B B 0 r r B B B B B C Z C B B B ",
"B B B V 8 . > $ 4 3 3 B B B B B B B B B B B B N V G B B B B N l _ _ r N B B B B B B B B B B B B B B x ] / q 3 B 3 C #.&.P B 3 B ",
"B B B V B $ ;   B A S C B B B B B G B B B B 4 6 7 B B B B B B z { [ s N B B B B B B B B D B B B N B c } ` q N B 3 C %.-.I G 3 B ",
"B B B B B 6 @ u C +.*.I B 3 B B B B B B V G & 1 $ D N B B B B q x x 0 B B B B B V B B B B B B B B B r c z 0 B B 3 B K P Z B B B ",
"B G B B B B B 3 C +.-.I B 3 B B B B B B V D $ - = G V B B B B B V N B B B B B e d 7 B B B B B B B B B B C B B B B B 3 3 B B B B ",
"B B B B B B B B B Z J Z B B B B 3 N B B B B 5 + 6 B V B B B B B B B B B B B G j Q h G 3 B B B B B B B B B B B B B B B 3 B B B B ",
"B B B B B B B B B 3 3 3 B B B B 9 p i 9 B B V N B B 8 B B B B B B B B B V N B h ^ g G C B B B B B B B B B B B B B B B B B B G B ",
"B B B B B B B B B B 3 B B B B N p W ! e N B B B B B G B B B B B 3 B B B B B B w s H B B B B B B B B B B B B B B B B B B B B B B ",
"B B N B B B B B B B B B B B B B s E T w N B B B B B B B B B G B B B B 6 . o 8 N N B B B B B B B B B B B B B B B B B B B B B B B ",
"B G G G B B B B B B B B B B B B G w w 8 B B B B B B B B B B B B 3 V V . ; , 4 N B B B B B B B B B B B B B B B B B B B B B B B G ",
"B r m v 0 N V B B B B B B B B B B N N N B B B B B B B B B B B B B B B + , $ 4 N B B B B B 3 B B B B B B s h a G B B B B B B B B ",
"N c ..] y N G G B B G B B G B B B B B 8 G B B B B B B B B B B B B G B 4 4 4 V B B B B B B B B B B B B B g ) R H N B B G B B B B ",
"B l / m 9 i Y a G B B B B B B B B B l / b 0 B B B B B B B B B B B B B V V V B B B B B D C @.@.S 3 3 B B p T f H B B B B B B B B ",
"B B 0 G B j ) T G B B B B B B B B N k X.] r N B B B B B B B B B B B B B B B B D B B B 3 S *.-.L 3 3 B B G 8 G B B B B B B B B D ",
"B B N N B i j a G B B B B B B B B N l n v 0 N B B B B B B V B B B B B B B N N N B B B 3 C U @.Z 3 8 B B B N B B B B B B N N B B ",
"B B B B B B G G B B B B B B B B B B D B G B G B B B V G 9 w G B B B B B B 0 r 9 B B 3 B B B C B B B B B B B B B B B B B q q G B ",
"B B B B B B B V B B B B B B G B B B B N N B B B B B B w Y R i N B B B B 8 k ] m 8 N B B 3 3 3 8 B B B B B B B B B B N r / _ z N ",
"B B B B B B B B G B B B B B B B B B B B B B B B B B N 7 ~ Q p B B B B N G m X./ 8 N B B B B B B B B B B B B B B B B N r ] } c B ",
"B 3 3 3 B B B B B B B B B B B B B B B B B B B B B B B 8 p a w B B B B B B t k z G B B B B B B B B B B B B B B G B D N 0 x k r N ",
"3 C S S B 3 B B B B B B G B B B B B B B B 3 B B B B B B 3 B B B B B B B B B N N B B B B B B B B B B B B B B B B B B B B B N B B ",
"B J *.%.Z 3 B B B B B B B B B B B G B B 3 3 3 G B B B B B B B B B B B B B B B B B B B D B B B B B N N B B B B B B B B D N B B B ",
"8 L *.%.Z 3 B B B B B B B B N B B B B B Z L S B N B B B B B B G B B B B B V V B B G B B B B B B 4 i i G B B B B B B B B B B B B ",
"3 C S S B 3 B B B B B B B B B B B B 3 B U -.$.C 3 3 B B B B B B B B B B B B B B B B B B B B N B p ^ ~ e N B B B B B B B B B B G ",
"B 3 3 3 B B B B B B B B 9 p a w B B 3 B I *.O.C X . 6 B B B B G B B B B G e f s G B B B B B V B d ~ T e N B B G B B G B B B B B ",
"B B B 3 B B B B G B B N e ! W i N B 3 B C Z A 8   ; $ B V B B B B B B B B j ( Y G N B B B B B B G e w G B B B B B B B B B B B B ",
"B B B B B B B B B B B B w Y R s B B B B 3 3 3 D $ : @ B B B B B B B B B G a ~ h 8 B B B B B B G B N V B B B B B B B B B B B G B ",
"B B B B B B B B B B B B G 9 7 8 B B B B B B B G 4 7 4 B B B B B B B B B B G 7 H B B B B B B B B B B B B G B B B B B B B B B B B ",
"B B B B N B B B B B B 3 3 V N B B B B B B B B B N N V B B B B B B B B B B B N B B B B B B B 3 3 3 B B B B B B B B B G B B B B B ",
"B B B D 8 D B B B B B B C B B B B B B B B B B B V B 8 B B B B B B B B B B B B B B B B B B B B C B B B B B B B B B B B B B B B B ",
"B B B i T g D B B 3 C U $.J 3 3 B B B 8 B B B B B B N N B B B B B B B B B B B B B B B B B 3 Z #.#.Z 3 8 B B B B G B B B V B B B ",
"B B N g ) R 9 N B 3 C &.;.I B 3 B B B B B B B B B B 9 9 G B B B B B B B B B B 8 G B B B 3 3 S =.=.S 3 B B B B G B B B G H H G B ",
"B B B s h a 8 B B 3 C I @.S 3 B B B V V V B B B N 9 j R p B B B B B G B B B B B B B B V V 3 Z U U Z 3 B B B B B B B V H j T s B ",
"B B B B B B B B B B B G B B B B B V 4 5 7 B B B N 9 R ( f B B B B B B B B B B B B V D F 5 D B B B 3 B B B B B B B B V e ! ( p N ",
"B B B B V B B B B G B 3 3 B B B B B + :   F V B N 8 p f e 3 B B B B G B B B B B B V 4   : o B 3 3 B B B B B B B B B B G a f w B ",
"B B B B B B B B B B B B 3 B B B V B # - , 5 V B B B B B B B B B B B B B B B B B 3 V 5 , - @ B V B B B B B B B B B B B B B B B B ",
"B B B B B G B B B B B B B B B G B B 7 @ O D B B B B B N B B B B B B B B B B G B B V 4 O @ 5 B B B B B B G B B B B B B B B B B B ",
"B B B B B B B B B B B B B B B B B B V V N B B B B 3 B B B G B B B B B B B B B B B B V V V N B B B G B B B B B B B B B B B B B B "
};
