/* XPM */
static char *result[] = {
/* columns rows colors chars-per-pixel */
"34 34 8 1 ",
"  c #482400",
". c #13642C",
"X c #ED1C24",
"o c #FF7F27",
"O c #1D9441",
"+ c #22B14C",
"@ c #FFF200",
"# c #00A2E8",
/* pixels */
"OOOOOOOOOO+++OOOOOOOOOOOOOOOOXOOOO",
"OO+OOOOOO...++OOOOoO++OOOOOOOOOOOO",
"O++.OOXOO. . OOXOOOO+..OOOoOOOOO@O",
"O+ .+OOOO.  .OOOOOO++ .+OOOOOOOOOO",
"O.  .OOOO..  OOOOOOO.  .OOOO++OOOO",
"O.. .OOoOO.. OO#OOOO.. OOOO++.OOOO",
"OOO OOOO+OOO OOOOOOOOO O@OO+...OOO",
"OOO O#O++.OOOO+++O@OOO OOOO+ ..OOO",
"OXOOOOO+...OO++..OOO++OOOOO. ..OOO",
"OOOOOOO+ ..OO....OO..++OOOOO .OOOO",
"OOOOXOO. ..OOO...O....+OOOOO OOOOO",
"OOOOOOOO .OOOOO OO... .OOOOO OOO#O",
"OO+OOOOO OOOOOO OOO. ..OOOXOOOOOOO",
"O++.OOOO OOOOOO OOOO .OOOOOOOO++OO",
"O+ .+OOOOOXOO+++OOOO OOoOOOOO..++O",
"O.  .OOOOOOOO+...OOOOOOO++OO....+O",
"O.. .OOOOOOO++ ..OOOOOO..++O... .O",
"OOO OOOOOO@O+. .OOO#OO....+OO. ..O",
"OOO OOO+.OOOOO OOOOOOO... .OOO .OO",
"OOOOOO++...OOO OOOOOOOO. ..OOO OoO",
"O#OOOO+  ..OoOOOOOOOOOOO .OOOOOOOO",
"OOOOOO. ..OOO#O+++OoOOOO OOOOOOOOO",
"OOOXOOO .OOOOO...++OOOOOOOOOO@OOOO",
"OOOOOOO OOOOOO. . OOOOOOOOOO+OOXOO",
"OOO++OO OO@OOO.  .OOOOOOOOO++.OOOO",
"Oo++.OOOOOOOOO..  OOOO@O#OO+ .+OOO",
"OO+...OOOO++OOO.. OOO+OOOOO.  .OOO",
"OO+ ..O#O..++OOOO OO++.OOOO.. .OoO",
"OO. ..OO....+OOOOOOO+ .+OOOOO OOOO",
"OOO .OOO... .OOOO@OO.  .OOOXO OOOO",
"OOO OOOOO. ..OOOOOOO.. .OOOOOOOOOO",
"OOO OOXOOO .OOOOOOOOOO OOOOOOO@OOO",
"O@OOOOOOOO OOoOOXOOOOO OOOOOOOOOOO",
"OOOOOOOOOOOOOOOOOOOOOOOOOOOOOOOOOO"
};
