/* XPM */
static char *result[] = {
/* columns rows colors chars-per-pixel */
"64 64 110 2 ",
"   c black",
".  c #010000",
"X  c #020202",
"o  c #030203",
"O  c gray1",
"+  c #040303",
"@  c #040404",
"#  c #0E0D0D",
"$  c #0E0E0E",
"%  c #0F0F0E",
"&  c gray6",
"*  c #100F0F",
"=  c #101010",
"-  c #111010",
";  c #121111",
":  c #171013",
">  c #151313",
",  c #151314",
"<  c #181115",
"1  c #1B1317",
"2  c #1C1418",
"3  c #1C1519",
"4  c #181818",
"5  c #191A1A",
"6  c gray10",
"7  c #1B1B1B",
"8  c #1B1C1C",
"9  c #1D1C1C",
"0  c #1D1D1D",
"q  c #1E1D1E",
"w  c #1E1E1E",
"e  c gray12",
"r  c #271D22",
"t  c #291D23",
"y  c #291E23",
"u  c #2C1F25",
"i  c #372F33",
"p  c #3E2933",
"a  c gray20",
"s  c gray21",
"d  c #373737",
"f  c gray22",
"g  c #3A3A3A",
"h  c #402A35",
"j  c #412B36",
"k  c #432C37",
"l  c #B76C92",
"z  c #B96D93",
"x  c #BC6F96",
"c  c #B47F9A",
"v  c #CE79A4",
"b  c #D07AA5",
"n  c #D17AA6",
"m  c #D17BA6",
"M  c #D37BA7",
"N  c #D47CA8",
"B  c #D47CA9",
"V  c #CD91B0",
"C  c #CF92B1",
"Z  c #CF9AB5",
"A  c #CF9BB6",
"S  c #D094B3",
"D  c #D296B5",
"F  c #E585B6",
"G  c #E786B7",
"H  c #E887B8",
"J  c #E988B9",
"K  c #EA88B9",
"L  c #EB89BA",
"P  c #EA94C0",
"I  c #EDA1C8",
"U  c #E9A4C8",
"Y  c #EAA5C9",
"T  c #EBA6C9",
"R  c #ECA7CB",
"E  c #E8ACCB",
"W  c #EDB1D0",
"Q  c #EEB1D0",
"!  c #EEBAD5",
"~  c #C5C5C5",
"^  c #C5C6C6",
"/  c gray78",
"(  c gray79",
")  c #CACACA",
"_  c #DED7DA",
"`  c #E3DBDF",
"'  c gray88",
"]  c #E0E1E1",
"[  c #E1E1E1",
"{  c #E2E2E2",
"}  c #E2E3E2",
"|  c #E4E4E4",
" . c #E4E5E4",
".. c gray90",
"X. c #E6E6E6",
"o. c #E7E7E7",
"O. c gray91",
"+. c #FCF0F6",
"@. c #FDF2F7",
"#. c #FEF2F8",
"$. c #FFF4F9",
"%. c #FEF6FA",
"&. c #FBFBFB",
"*. c #FFF9FD",
"=. c gray99",
"-. c #FDFDFD",
";. c #FFFDFE",
":. c #FEFEFE",
">. c white",
",. c None",
/* pixels */
",.,.,.,.,.,.,.,.,.,.,.,.,.,.,.,.,.,.,.,.,.,.,.,.,.,.,.,.,.,.,.,.,.,.,.,.,.,.,.,.,.,.,.,.,.,.,.,.,.,.,.,.,.,.,.,.,.,.,.,.,.,.,.,.",
",.,.,.,.,.,.,.,.,.,.,.,.,.,.,.,.,.,.,.,.,.,.,.,.,.,.,.,.,.,.,.,.,.,.,.,.,.,.,.,.,.,.,.,.,.,.,.,.,.,.,.,.,.,.,.,.,.,.,.,.,.,.,.,.",
",.,.,.,.,.,.,.,.,.,.,.,.,.,.,.,.,.,.,.,.,.,.,.,.,.,.,.,.,.,.,.,.,.,.,.,.,.,.,.,.,.,.,.,.,.,.,.,.,.,.,.,.,.,.,.,.,.,.,.,.,.,.,.,.",
",.,.,.,.,.,.,.,.,.,.,.,.,.,.,.,.,.,.,.,.,.,.,.,.,.,.,.,.,.,.,.,.,.,.,.,.,.,.,.,.,.,.,.,.,.,.,.,.,.,.,.,.,.,.,.,.,.,.,.,.,.,.,.,.",
",.,.,.,.,.,.,.,.,.,.,.,.,.,.,.,.,.,.,.,.,.,.,.,.,.,.,.,.,.,.,.,.,.,.,.,.,.,.,.,.,.,.,.,.,.,.,.,.,.,.,.,.,.,.,.,.,.,.,.,.,.,.,.,.",
",.,.,.,.,.,.,.,.,.,.,.,.,.,.,.,.,.,.,.,.,.,.,.,.,.,.,.,.,.,.,.,.,.,.,.,.,.,.,.,.,.,.,.,.,.,.,.,.,.,.,.,.,.,.,.,.,.,.,.,.,.,.,.,.",
",.,.,.,.,.,.,.,.,.,.,.,.,.,.,.,.,.,.,.,.,.,.,.,.,.,.,.,.,.,.,.,.,.,.,.,.,.,.,.,.,.,.,.,.,.,.,.,.,.,.,.,.,.,.,.,.,.,.,.,.,.,.,.,.",
",.,.,.,.,.,.,.,.,.,.,.,.,.,.,.,.,.,.,.,.,.,.,.,.,.,.,.,.,.,.,.,.,.,.,.,.,.,.,.,.,.,.,.,.,.,.,.,.,.,.,.,.,.,.,.,.,.,.,.,.,.,.,.,.",
",.,.,.,.,.,.,.,.,.,.,.,.,.,.,.,.,.,.,.,.,.,.,.,.,.,.,.,.,.,.,.,.,.,.,.,.,.,.,.,.,.,.,.,.,.,.,.,.,.,.,.,.,.,.,.,.,.,.,.,.,.,.,.,.",
",.,.,.,.,.,.,.,.,.,.,.,.,.,.,.,.,.,.,.,.,.,.,.,.,.,.,.,.,.,.,.,.,.,.,.,.,.,.,.,.,.,.,.,.,.,.,.,.,.,.,.,.,.,.,.,.,.,.,.,.,.,.,.,.",
",.,.,.,.            ,.,.,.,.,.,.,.,.,.,.,.,.,.,.,.,.,.,.,.,.,.,.,.,.,.,.,.,.,.,.,.,.,.,.,.,.,.,.,.,.,.,.,.,.            ,.,.,.,.",
",.,.,.,.    X X     ,.,.,.,.,.,.,.,.,.,.,.,.,.,.,.,.,.,.,.,.,.,.,.,.,.,.,.,.,.,.,.,.,.,.,.,.,.,.,.,.,.,.,.,.    X X     ,.,.,.,.",
",.,.,.,.  X # # X                           ,.,.,.,.,.,.,.,.,.,.,.,.,.,.,.,.,.,.,.,.                          X # # X   ,.,.,.,.",
",.,.,.,.  X # $ @ X X X X X X X X X X X X X ,.,.,.,.,.,.,.,.,.,.,.,.,.,.,.,.,.,.,.,.X X X X X X X X X X X X X @ $ # X   ,.,.,.,.",
",.,.,.,.    X @ # * * * * * * * * * * * * # X   ,.,.,.,.,.,.,.,.,.,.,.,.,.,.,.,.  X # * * * * * * * * * * * * # @ X     ,.,.,.,.",
",.,.,.,.      X * ; ; ; ; ; ; ; ; ; ; ; ; * X   ,.,.,.,.,.,.,.,.,.,.,.,.,.,.,.,.  X * ; ; ; ; ; ; ; ; ; ; ; ; * X       ,.,.,.,.",
",.,.,.,.,.,.  X * ; ; ; ; ; ; ; ; ; ; ; ; * X   ,.,.,.,.,.,.,.,.,.,.,.,.,.,.,.,.  X * ; ; ; ; ; ; ; ; ; ; ; ; * X   ,.,.,.,.,.,.",
",.,.,.,.,.,.  X * ; ; ; ; ; ; ; ; ; * * * # X   ,.,.,.,.,.,.,.,.,.,.,.,.,.,.,.,.  X # * * * ; ; ; ; ; ; ; ; ; * X   ,.,.,.,.,.,.",
",.,.,.,.,.,.  X * ; ; ; ; ; ; ; ; * @ X X X                                         X X X @ * ; ; ; ; ; ; ; ; * X   ,.,.,.,.,.,.",
",.,.,.,.,.,.  X * ; ; ; ; ; ; ; * # + X X X X X X X X X X X X X X X X X X X X X X X X X X + # * ; ; ; ; ; ; ; * X   ,.,.,.,.,.,.",
",.,.,.,.,.,.  X * ; ; ; ; ; ; * @ + # * * * * * * * * * $ $ $ $ $ $ $ $ * * * * * * * * * # + @ * ; ; ; ; ; ; * X   ,.,.,.,.,.,.",
",.,.,.,.,.,.  X * ; ; ; ; ; * # + @ * ; ; ; ; ; ; ; ; , y u u u u u u y , ; ; ; ; ; ; ; ; * @ + # * ; ; ; ; ; * X   ,.,.,.,.,.,.",
",.,.,.,.,.,.  X * ; ; ; ; * @ + # * ; ; ; ; ; ; ; ; & r z n v v v v n z r & ; ; ; ; ; ; ; ; * # + @ * ; ; ; ; * X   ,.,.,.,.,.,.",
",.,.,.,.,.,.  X * ; ; ; * # + @ * ; ; ; ; ; ; ; ; > r h x B G K K G B x h r > ; ; ; ; ; ; ; ; * @ + # * ; ; ; * X   ,.,.,.,.,.,.",
",.,.,.,.,.,.  X * ; ; * @ + # * ; ; ; ; ; ; ; ; - y z x p j n J J n j p x z y - ; ; ; ; ; ; ; ; * # + @ * ; ; * X   ,.,.,.,.,.,.",
",.,.,.,.,.,.  X * ; * # + @ * ; ; ; ; ; ; ; ; ; = u m n y t v K K v t y n m u = ; ; ; ; ; ; ; ; ; * @ + # * ; * X   ,.,.,.,.,.,.",
",.,.,.,.,.,.  X * * @ + # * ; ; ; ; ; ; ; ; ; ; = u m n y t v K K v t y n m u = ; ; ; ; ; ; ; ; ; ; * # + @ * * X   ,.,.,.,.,.,.",
",.,.,.,.,.,.  X * * X X * ; ; ; ; ; ; ; ; ; ; ; - y z x p j n J J n j p x z y - ; ; ; ; ; ; ; ; ; ; ; * X X * * X   ,.,.,.,.,.,.",
",.,.,.,.,.,.  X * * X X * ; ; ; ; ; ; ; ; ; ; ; ; , r h x N F H H F N x h r , ; ; ; ; ; ; ; ; ; ; ; ; * X X * * X   ,.,.,.,.,.,.",
",.,.,.,.,.,.  X # # X X * ; ; ; ; ; ; ; ; ; * * * * % r z B F H H F B z r % * * * * ; ; ; ; ; ; ; ; ; * X X # # X   ,.,.,.,.,.,.",
",.,.,.,.,.,.,.,.X X   X * ; ; ; ; ; ; ; ; * X     X * , r k M L L M k r , * X     X * ; ; ; ; ; ; ; ; * X   X X ,.,.,.,.,.,.,.,.",
",.,.,.,.,.,.,.,.      X * ; ; ; ; ; ; ; * ; 0 e e 0 ; * % r l b b l r % * ; 0 e e 0 ; * ; ; ; ; ; ; ; * X       ,.,.,.,.,.,.,.,.",
",.,.,.,.,.,.,.,.,.,.  X * ; ; ; ; ; ; * . 7 ~ { { ~ 7 . * , y u u y , * . 7 ~ { { ~ 7 . * ; ; ; ; ; ; * X   ,.,.,.,.,.,.,.,.,.,.",
",.,.,.,.,.,.,.,.,.,.  X * ; ; ; ; ; * ; 7 g X.>.>.X.g 7 ; * = = = = * ; 7 g X.>.>.X.g 7 ; * ; ; ; ; ; * X   ,.,.,.,.,.,.,.,.,.,.",
",.,.,.,.,.,.,.,.,.,.  X * ; ; ; ; * . 7 / o.=.>.>.&.X.~ 7 . * ; ; * . 7 ~ X.&.>.>.=.o./ 7 . * ; ; ; ; * X   ,.,.,.,.,.,.,.,.,.,.",
",.,.,.,.,.,.,.,.,.,.  X * ; ; ; * ; 7 s ) o.=.>.>.>.>.X.g 7 ; * * ; 7 g X.>.>.>.>.=.o.) s 7 ; * ; ; ; * X   ,.,.,.,.,.,.,.,.,.,.",
",.,.,.,.,.,.,.,.,.,.  X * ; ; * X 0 / ) a d ..>.>.>.>.&.X.~ 7     7 ~ X.&.>.>.>.>...d a ) / 0 X * ; ; * X   ,.,.,.,.,.,.,.,.,.,.",
",.,.,.,.,.,.,.,.,.,.  X * ; ; *   e | o.d a ( { ' | &.>.>.X.g 0 0 g X.>.>.&.| ' { ( a d o.| e   * ; ; * X   ,.,.,.,.,.,.,.,.,.,.",
",.,.,.,.,.,.,.,.,.,.  X * ; ; *   e [ :.o.) s 0 0 g | >.>.&.| ' ' | &.>.>.| g 0 0 s ) o.:.[ e   * ; ; * X   ,.,.,.,.,.,.,.,.,.,.",
",.,.,.,.,.,.,.,.,.,.  X * ; ; *   e [ :.O./ 6     0 ' >.>.>.>.>.>.>.>.>.>.' 0     6 / O.:.[ e   * ; ; * X   ,.,.,.,.,.,.,.,.,.,.",
",.,.,.,.,.,.,.,.,.,.  X * ; ; *   e { X.f 4 O     e ' >.>.>.>.>.>.>.>.>.>.' e     O 4 f X.{ e   * ; ; * X   ,.,.,.,.,.,.,.,.,.,.",
",.,.,.,.,.,.,.,.,.,.  X * ; ; *   e { X.f 4 O     e ' >.>.>.>.>.>.>.>.>.>.' e     O 4 f X.{ e   * ; ; * X   ,.,.,.,.,.,.,.,.,.,.",
",.,.,.,.,.,.,.,.,.,.  X * ; ; *   e [ -.X.~ 5     0 ' >.>.>.>.>.>.>.>.>.>.' 0     5 ~ X.-.[ e   * ; ; * X   ,.,.,.,.,.,.,.,.,.,.",
",.,.,.,.,.,.,.,.,.,.  X # * ; *   e ' >.*.` i 1 9 g | >.>.;.@.+.+.@.;.>.>.| g 9 1 i ` *.>.' e   * ; * # X   ,.,.,.,.,.,.,.,.,.,.",
",.,.,.,.,.,.,.,.,.,.,.,.X @ * *   e } *.! E S Z _  .&.>.>.@.I P P I @.>.>.&. ._ Z S E ! *.} e   * * @ X ,.,.,.,.,.,.,.,.,.,.,.,.",
",.,.,.,.,.,.,.,.,.,.,.,.  X # $ X 0 ^ ` E U Y Q %.>.>.>.>.@.I P P I @.>.>.>.>.%.Q Y U E ` ^ 0 X $ # X   ,.,.,.,.,.,.,.,.,.,.,.,.",
",.,.,.,.,.,.,.,.,.,.,.,.,.,.X @ # ; 8 i D R T W %.>.>.>.>.>.$.#.#.$.>.>.>.>.>.%.W T R D i 8 ; # @ X ,.,.,.,.,.,.,.,.,.,.,.,.,.,.",
",.,.,.,.,.,.,.,.,.,.,.,.,.,.  X $ #   : c C V A _ ] ' ' ' ' ] ] ] ] ' ' ' ' ] _ A V C c :   # $ X   ,.,.,.,.,.,.,.,.,.,.,.,.,.,.",
",.,.,.,.,.,.,.,.,.,.,.,.,.,.,.,.X X   o < 2 2 3 q e w w w w w w w w w w w w e q 3 2 2 < o   X X ,.,.,.,.,.,.,.,.,.,.,.,.,.,.,.,.",
",.,.,.,.,.,.,.,.,.,.,.,.,.,.,.,.                                                                ,.,.,.,.,.,.,.,.,.,.,.,.,.,.,.,.",
",.,.,.,.,.,.,.,.,.,.,.,.,.,.,.,.,.,.,.,.,.,.,.,.,.,.,.,.,.,.,.,.,.,.,.,.,.,.,.,.,.,.,.,.,.,.,.,.,.,.,.,.,.,.,.,.,.,.,.,.,.,.,.,.",
",.,.,.,.,.,.,.,.,.,.,.,.,.,.,.,.,.,.,.,.,.,.,.,.,.,.,.,.,.,.,.,.,.,.,.,.,.,.,.,.,.,.,.,.,.,.,.,.,.,.,.,.,.,.,.,.,.,.,.,.,.,.,.,.",
",.,.,.,.,.,.,.,.,.,.,.,.,.,.,.,.,.,.,.,.,.,.,.,.,.,.,.,.,.,.,.,.,.,.,.,.,.,.,.,.,.,.,.,.,.,.,.,.,.,.,.,.,.,.,.,.,.,.,.,.,.,.,.,.",
",.,.,.,.,.,.,.,.,.,.,.,.,.,.,.,.,.,.,.,.,.,.,.,.,.,.,.,.,.,.,.,.,.,.,.,.,.,.,.,.,.,.,.,.,.,.,.,.,.,.,.,.,.,.,.,.,.,.,.,.,.,.,.,.",
",.,.,.,.,.,.,.,.,.,.,.,.,.,.,.,.,.,.,.,.,.,.,.,.,.,.,.,.,.,.,.,.,.,.,.,.,.,.,.,.,.,.,.,.,.,.,.,.,.,.,.,.,.,.,.,.,.,.,.,.,.,.,.,.",
",.,.,.,.,.,.,.,.,.,.,.,.,.,.,.,.,.,.,.,.,.,.,.,.,.,.,.,.,.,.,.,.,.,.,.,.,.,.,.,.,.,.,.,.,.,.,.,.,.,.,.,.,.,.,.,.,.,.,.,.,.,.,.,.",
",.,.,.,.,.,.,.,.,.,.,.,.,.,.,.,.,.,.,.,.,.,.,.,.,.,.,.,.,.,.,.,.,.,.,.,.,.,.,.,.,.,.,.,.,.,.,.,.,.,.,.,.,.,.,.,.,.,.,.,.,.,.,.,.",
",.,.,.,.,.,.,.,.,.,.,.,.,.,.,.,.,.,.,.,.,.,.,.,.,.,.,.,.,.,.,.,.,.,.,.,.,.,.,.,.,.,.,.,.,.,.,.,.,.,.,.,.,.,.,.,.,.,.,.,.,.,.,.,.",
",.,.,.,.,.,.,.,.,.,.,.,.,.,.,.,.,.,.,.,.,.,.,.,.,.,.,.,.,.,.,.,.,.,.,.,.,.,.,.,.,.,.,.,.,.,.,.,.,.,.,.,.,.,.,.,.,.,.,.,.,.,.,.,.",
",.,.,.,.,.,.,.,.,.,.,.,.,.,.,.,.,.,.,.,.,.,.,.,.,.,.,.,.,.,.,.,.,.,.,.,.,.,.,.,.,.,.,.,.,.,.,.,.,.,.,.,.,.,.,.,.,.,.,.,.,.,.,.,.",
",.,.,.,.,.,.,.,.,.,.,.,.,.,.,.,.,.,.,.,.,.,.,.,.,.,.,.,.,.,.,.,.,.,.,.,.,.,.,.,.,.,.,.,.,.,.,.,.,.,.,.,.,.,.,.,.,.,.,.,.,.,.,.,.",
",.,.,.,.,.,.,.,.,.,.,.,.,.,.,.,.,.,.,.,.,.,.,.,.,.,.,.,.,.,.,.,.,.,.,.,.,.,.,.,.,.,.,.,.,.,.,.,.,.,.,.,.,.,.,.,.,.,.,.,.,.,.,.,.",
",.,.,.,.,.,.,.,.,.,.,.,.,.,.,.,.,.,.,.,.,.,.,.,.,.,.,.,.,.,.,.,.,.,.,.,.,.,.,.,.,.,.,.,.,.,.,.,.,.,.,.,.,.,.,.,.,.,.,.,.,.,.,.,.",
",.,.,.,.,.,.,.,.,.,.,.,.,.,.,.,.,.,.,.,.,.,.,.,.,.,.,.,.,.,.,.,.,.,.,.,.,.,.,.,.,.,.,.,.,.,.,.,.,.,.,.,.,.,.,.,.,.,.,.,.,.,.,.,."
};
