/* XPM */
static char *result[] = {
/* columns rows colors chars-per-pixel */
"34 34 16 1 ",
"  c black",
". c #482400",
"X c #13642C",
"o c gray29",
"O c #5D5D5D",
"+ c #727272",
"@ c gray50",
"# c #ED1C24",
"$ c #FF7F27",
"% c #1D9441",
"& c #22B14C",
"* c #FFF200",
"= c #00A2E8",
"- c #69C9E0",
"; c #99D9EA",
": c #C3C3C3",
/* pixels */
"%%%&&%%%%%*%%%%%%%%%%%%%%$%%%%%X&&",
"%%XX&&%%%%%%%%%%%%#%%=%%%%%%%%&&.&",
"%XXXX&%#%%%%% %%%%%%%%XX&&%%%#%&.X",
"%XXX.X%%%%   O $%%%%%%X.X&%%%%%%.%",
"%%X.XX%%% OOOOO %%%%%%%X.X%%%%%%.%",
"%%%.X%%%  OOOOOO %%$%%*%.%%%%%%%%=",
"%%%.%$%  O+OOOO     %%%%.%%%%%%%%%",
"%%%%%%% OO++O  ::: + %%%%%  %%%%%%",
"%%%%%%% OO++ ::::: + %%#% :: %%%%%",
"%%%%%%  OO+O ::::: ++ %%% @: %%#%%",
"#%%%=% O OO @@:::: o+o % @@:: %%%%",
"%%%%%% O O : @:::: ooo % @::: %%%%",
"%%%%% OO O : :::: ooooo ::::: %=%%",
"%%%% OO +O : :::: oooooo ::: o %%%",
"%%%% OO++ :: @::  oooooo ::: o %%%",
"%%*% OO++ :@ @: @ ooooooo : oo+ %%",
"%%% OOOO+ @ @:: @- oo+oooo ooo+ %#",
"%% OOOOO :@@::: @- oo++ooo oooo %%",
"%% OOOO ::@:::: @-@ oo+ooo oooo %%",
"$% OOOO ::::::: @-@@ oooooo ooo $%",
"% OOO  ::::::: @:;@: oooooo+ oo %%",
"% OO :::::::: @:-@@:: ooooo++ oo %",
"% O :::::::: @@@-@@@@ oooooo+ oo %",
"%%%%%%%#%--;;@@@;@@@@ ooooooo oo %",
"%*%%X&%%%%%;;;--;@@--;ooooooo oo %",
"%%%XX&&%%%%%%;;;----;;;ooooo%%%%*%",
"%%%X.X&%%$%%%%;;;;;;;;%%%%%%%%%%%%",
"%%%%..X%%%%%%%%%%%%%%%%%%%*%%%X&&%",
"%%=%%.%%%%*%%%%&&X%%#%%%%%%%%&X.X%",
"%%%%%.%%%%%%%%%&.X%%%%%%%%%%%X..%%",
"%%%%%%%%%%%%%%%X..%%$%%*%%%$%X.X%=",
"%%%%%%*%%%=%%%%%X.%%%%%%%%%%%%.%%%",
"%%%#%%%%%%%%%#%%%.%%%%%=%%%%*%%%%%",
"%%%%%%%%%%%%%%%%%%%#%%%%%%%%%%%%%#"
};
