/* XPM */
static char *result[] = {
/* columns rows colors chars-per-pixel */
"64 64 243 2 ",
"   c #020302",
".  c #060A07",
"X  c #0B0C0B",
"o  c #041309",
"O  c #07170B",
"+  c #14110F",
"@  c #141313",
"#  c #171818",
"$  c #1C1B1C",
"%  c #211B1A",
"&  c #04230D",
"*  c #072912",
"=  c #172319",
"-  c #093716",
";  c #14371E",
":  c #3C330A",
">  c #3C3A0E",
",  c #2E3A13",
"<  c #363D12",
"1  c #221D21",
"2  c #0F2923",
"3  c #1E2927",
"4  c #183A23",
"5  c #232323",
"6  c #272728",
"7  c #2C2C2C",
"8  c #322B2D",
"9  c #23392A",
"0  c #322F31",
"q  c #2B3834",
"w  c #343434",
"e  c #353937",
"r  c #3C3C3C",
"t  c #462501",
"y  c #432C05",
"u  c #582F0D",
"i  c #42340A",
"p  c #6B3116",
"a  c #0A441B",
"s  c #17521F",
"d  c #31420A",
"f  c #2B4818",
"g  c #374615",
"h  c #29531E",
"j  c #39531A",
"k  c #0C4A22",
"l  c #114923",
"z  c #0D5826",
"x  c #195926",
"c  c #125D29",
"v  c #255722",
"b  c #2A5128",
"n  c #0E682D",
"m  c #14652C",
"M  c #19642B",
"N  c #146A2E",
"B  c #176A32",
"V  c #157433",
"C  c #1A7735",
"Z  c #167A35",
"A  c #1A7C36",
"S  c #296929",
"D  c #2A732D",
"F  c #23782D",
"G  c #34712F",
"H  c #247C33",
"J  c #297932",
"K  c #74531C",
"L  c #47572B",
"P  c #7C5D34",
"I  c #5D6F38",
"U  c #477B3A",
"Y  c #53753A",
"T  c #577638",
"R  c #686836",
"E  c #746F33",
"W  c #413D41",
"Q  c #374144",
"!  c #3E5C48",
"~  c #2F7845",
"^  c #1F7760",
"/  c #444343",
"(  c #484648",
")  c #4B4B4B",
"_  c #45574B",
"`  c #4F5051",
"'  c #545454",
"]  c #585656",
"[  c #5C5C5C",
"{  c #59615B",
"}  c #59686C",
"|  c #636363",
" . c #6B6769",
".. c #6C6B6C",
"X. c #6D7275",
"o. c #737373",
"O. c #7A7777",
"+. c #7D7C7C",
"@. c #B73B2C",
"#. c #F81522",
"$. c #D02D28",
"%. c #99531A",
"&. c #9D4A2F",
"*. c #865733",
"=. c #935131",
"-. c #A8442E",
";. c #817D7D",
":. c #BE6E65",
">. c #158439",
",. c #19843A",
"<. c #1B8C3D",
"1. c #17933D",
"2. c #1C933E",
"3. c #19993E",
"4. c #248236",
"5. c #23893B",
"6. c #2B8C3F",
"7. c #3A843D",
"8. c #34883D",
"9. c #23953F",
"0. c #2A933D",
"q. c #26983E",
"w. c #2B9A3D",
"e. c #39923E",
"r. c #339E3B",
"t. c #39A13A",
"y. c #48883C",
"u. c #47913D",
"i. c #569337",
"p. c #57923C",
"a. c #658E39",
"s. c #738C37",
"d. c #70913A",
"f. c #47A635",
"g. c #54AB31",
"h. c #57AD30",
"j. c #68B42C",
"k. c #72B727",
"l. c #7EC328",
"z. c #138F44",
"x. c #169443",
"c. c #1C9441",
"v. c #169842",
"b. c #1C9A43",
"n. c #1B954B",
"m. c #1C984D",
"M. c #199657",
"N. c #268942",
"B. c #239340",
"V. c #289645",
"C. c #34934B",
"Z. c #299A50",
"A. c #2F9E5A",
"S. c #1DA245",
"D. c #1DA94A",
"F. c #1EB74F",
"G. c #22A647",
"H. c #21AD4A",
"J. c #22B24D",
"K. c #169868",
"L. c #148D7A",
"P. c #149977",
"I. c #15A079",
"U. c #34A46B",
"Y. c #639975",
"T. c #4EA975",
"R. c #99B113",
"E. c #8A8B35",
"W. c #988B34",
"Q. c #A58832",
"!. c #B48630",
"~. c #C6842D",
"^. c #D0832C",
"/. c #E6812A",
"(. c #98C71E",
"). c #A4CD1A",
"_. c #B5D416",
"`. c #8AC222",
"'. c #93C620",
"]. c #CBDC0F",
"[. c #C4D911",
"{. c #E3E608",
"}. c #80906B",
"|. c #6B7D82",
" X c #0C998D",
".X c #119B88",
"XX c #0D9C9A",
"oX c #0B9CA5",
"OX c #089EBC",
"+X c #7B888B",
"@X c #648B96",
"#X c #7C8E92",
"$X c #7D9499",
"%X c #58AE9A",
"&X c #4D95A6",
"*X c #7D9EA7",
"=X c #6DADB3",
"-X c #6EC2B1",
";X c #73C3B5",
":X c #76C6BB",
">X c #079FC1",
",X c #03A1D8",
"<X c #6DB5C7",
"1X c #74BACA",
"2X c #6EBDD0",
"3X c #5FC2CB",
"4X c #6AC5DB",
"5X c #74C4D5",
"6X c #75CEE5",
"7X c #75CFE7",
"8X c #848384",
"9X c #818688",
"0X c #8B8B8B",
"qX c #889194",
"wX c #949394",
"eX c #999696",
"rX c #9B9B9B",
"tX c #889EA4",
"yX c #8EAEB7",
"uX c #A5A5A5",
"iX c #A7AAAB",
"pX c #ACACAC",
"aX c #B4B4B4",
"sX c #B4BDB6",
"dX c #BCBCBC",
"fX c #C3B5B4",
"gX c #B5C1BA",
"hX c #C2C0BF",
"jX c #8ABCC9",
"kX c #8BCDD2",
"lX c #89C7D8",
"zX c #96CAD8",
"xX c #B8C3C6",
"cX c #A3C8D2",
"vX c #88D5E9",
"bX c #94D7E9",
"nX c #9BDAEC",
"mX c #9DDCF1",
"MX c #A2E1F8",
"NX c #C4C4C4",
"BX c #C6C7C8",
"VX c #CBCBCB",
"CX c #D2CED1",
/* pixels */
"c.c.c.c.c.S.J.J.H.G.c.c.c.c.c.c.z.c.j.{._.r.z.B.c.c.c.c.c.c.c.c.c.c.v.v.c.c.c.2.2.2.c.c.c.v.u.^.^.y.v.c.c.c.B.c.c.c.V N c.J.J.J.",
"c.c.B.<.,.<.b.H.H.G.S.B.c.c.b.c.c.c.h.).`.r.x.c.c.c.c.c.c.2.c.c.c.8.Y U N.1.c.M.K.M.c.c.b.c.u.W.W.u.b.c.c.c.c.b.b.b.<.,.4.0.G.J.",
"c.c.c.<.V N V 2.H.H.H.b.c.c.b.c.c.2.w.t.r.B.c.c.c.c.B.c.c.c.2.b.c.Y @.=.8.3.n..XOX.Xc.9.c.b.9.e.e.9.2.c.c.c.b.b.b.H.H.B.j j 0.J.",
"c.2.,.V m c m Z b.H.H.S.6.Y I 8.b.c.c.x.c.c.b.c.Z m A b.b.x.c.b.v.U =.P 6.3.n.P.oXL.,.,.,.c.b.b.b.c.c.c.b.B.G R y.H.F.V.j i D 3.",
"c.<.V m m m m m N c.D.D.7.&.@.U b.b.c.c.2.2.b.<.k & c 2.9.2.B.c.b.N.8.6.B.c.c.n.n.Z B B V b.H.H.S.b.c.c.c.B.P @.P B.D.G.j i h V ",
"B.,.N c m m n h f D 2.v.8.P *.G c.b.A c z l z l 4 6 l h T d.e.2.2.c.v.c.c.c.c.c.2.V c l h H b.J.J.B.c.c.c.c.I =.I 9.S.q.j y v Z ",
"c.,.B m m m c f : f B ,.c.N.V.B.c.c.M O . o . o w ) 6 % %.^.i.1.c.c.c.c.c.c.c.c.c.Z M , : h V b.H.c.c.c.c.c.5.N.B.B.b.5.g i D c.",
"c.2.,.V m x f , f x m ,.c.c.b.b.,.x l 7 6 7 6 7 ( [ Q 8 p K U 3.c.c.c.c.v.c.c.c.b.>.V v , , h F c.c.c.c.c.c.b.v.b.c.B.4.g i D 3.",
"c.c.c.,.B f : g x m N >.c.c.c.2.m & $ ) [ [ ] [ [ [ [ ` 6 O m c.c.c.c.9.G.w.B.2.c.w.0.C x > : s V <.c.c.c.c.c.c.c.c.c.5.g < J M.",
"B.c.c.c.,.h y , m V >.<.c.b.,.c *   # ` | [ | | [ [ | [ / q 4 z ,.b.B.u.E.d.V.x.q.j.`.g.F > i S ,.c.c.c.c.c.c.c.c.c.c.9.D G .XoX",
"c.c.c.c.2.S y d m 4.6.V.2.<.B *   . 5 ` | [ [ [ [ [ [ [ ] / @ O n <.,.a.~.%.V.z.q.(.].k.4.g i D b.c.b.c.B.c.c.B.2.c.c.2.5.M.oX,X",
"c.c.c.b.c.j y j H s.Q.p.<.z *   . 7 ) |  .[ [ [ | | | ] e #     & * - , u L 9.v.9.g.j.f.4.g i D b.b.b.B.c.c.c.c.c.c.c.c.c.n.L..X",
"c.c.B.c.c.S g v 0.E.~.d.A -     5 )  .o...| | [ ] ` ` ( 0 1 $ 1 $ @ .   + 4 V <.c.b.2.b.,.j g J c.,.A >.,.B.c.c.c.B.c.c.c.c.c.B.",
"c.c.c.c.c.4.D 4.9.u.a.C.A * X 7 ) ] | o.o... .[ r # + 5 [ 8X8X0X8X[ @ # Q q ; c <.c.b.b.2.J F 2.Z - & & z N.b.c.c.c.c.c.c.2.2.2.",
"c.c.c.c.B.c.c.c.2.2.c.m.A * @ / | [ | ..o.o.| ( e 5 1 e 0XBXBXVXVX0X1 5 | / X a <.b.c.7.G r.3.>.M 9 5 6 l B ,.9.c.c.c.c.c.c.c.c.",
"B.c.c.c.c.c.b.c.c.c.c.b.,.* @ / | { | o.o.o.( 5 ' 0XwXeXaXBXBXVXVX0X5 5  ./ . a <.b.N.*.-.{ >.a q O.eXwX[ ; z <.b.c.1.v.b.B.c.c.",
"b.c.c.c.c.c.c.2.b.2.2.,.m O X ( | [ | X.o...w X | NXCXNXNXNXNXBXBX9X1 5 | ' 6 4 N >.6.*.-.Y Z O 6 0XBXBXO.@ - ,.b.c.7.U 8.c.c.c.",
"x.b.2.c.c.c.c.c.3.V.,.l O   @ ( | [ | ..o.| 0 X | hXVXNXNXNXNXNXBX0X5 1  ...[ 0 * m 5.C.y.B.Z & 1 o.iXhXO.@ - z.b.N.*.@.I c.c.c.",
"R Y 6.c.c.c.c.M.P.M.,.-   + 5 e ( ] | ..[ b 7 w ..pXdXNXNXNXNXBXBX0X3 $ ' o.X.( $ ; N >.x.V x 6 W  .eXdXwX) b m >.6.P &.T c.1.B.",
"$.&.7.v.c.c.B. XOX.X,.* X e / $ 1 ) | | W # w ..+.0XpXhXNXNXNXNXBX0X1 @ ( | X.[ b = * n >.- 2 ' o.+.eXaXdXiX[ = z <.6.7.N.c.c.c.",
"-.*.8.b.c.c.c.P.oXI.<.- X / ) # @ ( ' W W ( ) ]  .8XuXNXNXNXNXBXVX0X5 + L ' | ] ` 1   c A * @ [ 0XwXuXdXCXNX .@ a <.b.v.3.c.c.B.",
"8.N.B.c.B.c.c.n.n.n.,.- + / ) # # ) / @ ) rX .1 b 8XpXNXNXNXNXBXNX8X5 @ Q ` ` ` ( 1 X c C - $ [ wXaXhXhXVXdX .O a 2.b.B.c.c.c.c.",
"v.v.c.c.c.c.c.B.2.V l 4 w ' ) @ @ ) W X ) aX..@ ( rXaXNXNXNXBXpX8X' 7 7 / ) ( ) ( w 5 ; l _  .wXuXdXBXNXVXxX .X a c.I..XM.2.c.c.",
"c.c.c.c.c.c.c.c.,.a @ e ] [ ( # $ ) W X ) pX..@ [ dXBXNXNXNXBXrXw @ r ) ) ) ) ) ( ) Q $ 1 O.aXfXhXNXNXNXNXdX .@ a z.oX>XP.c.2.c.",
"c.c.c.2.c.c.c.N l 9 0 ) ] r 6 w ( [ r . ( iX..# | NXVXNXNXNXCXeX6 X / ) ) ) ) ) ) ) ( 0 7 ) |.pXBXNXNXNXrX ./ 8 ; l ^  XK.2.2.b.",
"c.c.B.c.c.b.c.k o 0 ] | ` 3 1 ' ..[ r $ ] pX..@ [ aXNXNXNXNXdX0X5 + r ) ) ) ) ) ) ) ) ) r # 7 wXBXNXBXNXO.1 1 b 1 O z c.m.b.c.2.",
"c.c.c.c.c.c.b.a . 0 [ | ] ( ) ..| e e  .eXdX .@ ( eXaXNXVXaXo.e X @ r ) ) ( ) ) ) ) ) ` b X 1 wXCXNXBXVXO.X # / 1   z 3.B.c.c.c.",
"c.c.c.q.r.w.2.a . 8 [ | | ..o.O.` @ r uXVXdX| @ e 8XpXNXdXwXW .   @ r ` ) ) ) ) ) ( ) ) ( # 7 +.aXNXNXpX..$ 5 / 8 # l ,.2.c.c.c.",
"c.c.c.h.).l.r.a . 0 [ [ | ..o.o.` @ r pXNXrX` X e +.pXaXo.( ) e X X W ` ) ( ) ) ( ( ) ) ( e 0 r  .aXuX' w w r ( ) / 9 ; V c.b.v.",
"c.c.x.j.[.`.4.a # e [ [ | ..o.o.` @ e rXuX..r = ) 0XaXpX/ @ [ ..q 3 e / ( ) ) ) ` ` ) ) ) ) r # w 8Xo.1 1 / ) ) | ..7 o z B.8.U ",
"c.c.c.t.h.G - 6 / ' [ | [ | ..o.' @ 6 +...7 w [ 0XpXBXpXr + ] #X&X} 3 1 ( ) ) [ | ] ) ) ) ) ( e 0 e e w r ) ) )  ...8 o z C.*.@.",
"c.c.c.,.V l % w [ [ [ [ [ [ [ [ ( w ( X.] 5 ) 0XpXNXVXpXQ @ ] qX4X&X2 + / ) ) { ..| ' ) ) ) ) ) e X @ W ) ) ) ) { { 6 o c 7.=.$.",
"c.c.b.n - 3 / ' [ | [ [ [ | ` 5 e +.wX8X..| 8XaXhXNXVXpXW @ ] $X2X&X2 + W ` ) [ o.X.| ] ) ) ) ` e X @ L ) ) ) ) ' ) 1 o c 9.y.Y ",
"x.c.c.c . 5 ] | [ [ [ [ [ ` b w [ pXaX0X8XwXpXNXNXNXVXpXW @ ] $X2X&XQ 5 8 r ( [ | X.o.] ) ) ) ) w X @ W ) ) ) ) ) / # o c v.v.v.",
"b.b.c.c o 1 ' | [ [ [ | ` 1 7 O.pXNXpX0XwXaXdXNXNXNXVXiXW @ ] $X2X<X|./ @ 3 ( ` ' | ..[ ) ( ) ) e X @ W ) ) ) ) ) ( # o c v.c.c.",
"s.p.V.c o 5 ' | | [ [  .` @ = wXCXBXaXrXuXNXNXhXNXNXCXpXW @ ` $X2X1X#X| w 6 0 r ( [ | ' ) ( ) ) W 5 $ 7 r ) ) ) ) ( $ + L a.e.c.",
"/.!.e.c O 5 ' [ [ [ [ | ) $ 6 wXBXNXdXhXdXNXNXNXxXNXVXiXL @ ] qX1X<X#X;.../ @ 6 ( ` ` ) ) ) ) ) ( / 0 @ 1 / ) ) ) ( # + %.~.p.v.",
"!.E S l 6 r [ | [ ( 8 8 w / ..uXBXNXNXNXNXNXNXNXVXhXwX .Q ( |.iXlX1XqX0XrX] . $ ) ) ( ) ( ) ( ) ( ` Q w 6 6 e ) ` L # + K E.u.v.",
"V.S O 3 ) [ [ [ ' 0 +   5 ;.fXhXNXNXNXNXNXNXNXNXBXpX] 5 ) 8XiXxXbXjX9XeXaXo.# 1 / ) ( ) ) ) ) ) ) ) ' | ( @ 5 ( ) ( 1 o x 0.B.c.",
"v.n o % ' | | / 0 W [ [ ..iXVXBXhXNXNXNXNXNXBXNXeX| Q / O.iXcXzXyXtX+XeXdXuX .W 7 e ) ) ) ( ) ( ( ) [ X.{ r 7 6 r ( w 3 4 z >.c.",
"b.N O $ ' | ' 7 = ..sXhXfXhXNXNXNXNXNXNXNXNXNXpX[ 5 ( 8XuXxXlX<XqXY.;.eXaXNXaX[ + 6 ( ) ) ) ) ) ) ( ' ..o. .r X 1 ( ) r # O V B.",
"b.m o 1 ` ( 8 / ..uXVXCXVXBXNXVXNXNXNXNXBXhXwX] Q ( | 8XwXyX5X<X$X+.;.0XrXuXrX` X 1 ( ` ( ) ) ) ) ) ` [  .o.W X 1 ( ` / # o N b.",
"c.N * 5 _ w # [ gXgXgXgXgXfXfXfXsXdXgXxXNXxXo.6 ( O.8X8X;.#X<X<X#X;.;.;.;.;.|.W X 6 ( ) ) ) ( ) ) ) ( ) [  .r X 5 ( ` / # O N b.",
"c.,.n B ~ ~ c N.Y.T.Y.T.Y.:.:.}.%XkXzXzXzXzXyX@X|.+.;.;.;.8XjXlXqX;.;.;.;.;.;.r   1 ( ) ) ) ) ) ) ( ( ( ' ' 7 X 5 ( ` W # O N c.",
"2.w.t.t.B.b.c.<.<.c.b.v.7.&.-.Y I.%X3X3X5XbXnXbXyXqX+X9X+XqXzXzXqX|.+.9X+XqX|.` 6 w ( ) ( ) ) ) ) ) ) ( ` ( 6 . 1 ( ` W # O N c.",
"c.f.).`.r.n.c.>.V 1.S.b.<.Y T 4.S.U.U.U.-XvXMXmXzXlX1X=X<X1XzXzXqX;.|.#X=X<X<X<X@X} ( / ) ) ) ) ) ) ) ) ( ( 1 . 1 ( ` ( @ o N n.",
"x.g._.(.r.z.,.Z N <.H.S.2.b.x.c.c.c.1.2.T.:XkXkXkXmXvX6X4X7XvXkXtX+X#X*X2X7X7XvXbX*X} ` ( ( ) ) ( ) ) ( _ _ q * q _ _ b i > F c.",
"c.w.g.f.V.,.V N N 2.J.J.G.b.c.c.b.v.2.9.G.U.U.U.-XnXnXvXvXvX7X4X2X<X<X2X4X7XvXbXnXzX1XX.( ) ( ( ) ) ( ( ! ~ C B H N.N.7.R.R.f.x.",
"c.c.c.x.c.A m x x H b.J.H.b.c.b.0.p.u.5.1.2.<.c.T.5XkXnXnXnXvX7X7X7X7X7X6XvXnXmXnXbX=XY.! ! ! ! ! ! ! ! ~ c.c.B.b.c.x.r.(._.f.b.",
"c.c.c.c.c.,.m f > h Z b.H.G.c.2.y.!.Q.e.v.2.2.c.Z.U.;XnXmXnXbXbXbXbXbXbXvXnXnXmXbX%XU.N.5.~ N.N.N.N.~ N.N.c.c.c.b.c.b.B.t.f.w.c.",
"c.c.c.c.2.,.V g t : x A c.b.c.x.u.Q.E.6.x.c.c.c.1.B.T.:X;X;X-X-X:X;X;X;X;X;X-X:X-XT.2.1.b.c.c.b.t.h.f.G.c.c.c.c.<.,.c.b.m.v.b.c.",
"c.c.c.c.c.c.9.h t t : h V ,.2.c.V.e.e.B.c.c.c.c.c.V.G.A.A.A.A.A.A.A.A.A.A.A.A.A.A.b.c.c.c.2.c.z.g._.).t.z.c.B.c.A V 2.H.J.S.b.c.",
"c.2.B.M.P.P.n.D j i y g Z ,.c.b.z.x.t.j.h.q.c.c.c.c.2.2.3.3.S.3.1.>.1.1.<.G R U 2.1.2.c.c.c.c.c.f.(.`.r.c.c.b.b.A B D J 5.1.c.c.",
"c.9.c.P.>XXXn.2.4.g i S c.c.c.c.c.c.j.[.).r.z.c.c.c.c.b.G.H.H.q.V V <.3.c.R $.P 9.3.c.c.c.c.c.c.3.w.w.B.c.c.G.G.z.M d > h Z <.c.",
"c.2.2.K.XXP.n.b.9.j i S c.b.c.c.c.c.f.`.k.0.c.c.c.c.B.c.H.H.8.S M V <.1.2.Y *.I 9.c.c.x.z.c.c.c.c.x.x.x.c.c.c.<.S f y y b A <.2.",
"c.c.c.c.n.c.c.c.<.j i S B.c.c.c.c.c.q.w.q.c.c.c.c.c.c.b.D.0.j : h V <.c.b.N.8.6.c.c.c.q.q.B.c.c.2.c.B.B.B.c.>.m f y t i S c.b.c.",
"c.c.c.c.2.<.c.b.c.D S J x.1.c.c.c.c.c.c.x.c.c.B.c.c.c.c.<.F i t , v ,.b.c.p.E.p.9.x.w.k.`.f.c.c.c.x.u.E.s.0.A c , t : f H m..XXX",
"c.c.c.B.2.c.c.c.c.c.9.r.w.9.c.B.2.2.c.n.n.c.c.c.c.c.c.,.Z M < t t g 4.c.B.s.^.E.B.z.r.(.[.j.x.c.c.x.a.~.W.V.>.N , y f B ,.M.oX,X",
"c.B.c.c.B.b.b.c.c.x.V.k.(.f.b.c.2.2.K.XX.Xn.c.c.b.v.b.c.,.C v , t i 4.b.9.u.s.p.9.v.9.j.k.u.3.c.c.c.u.s.a.c.z.A g y h ,.2.M.P. X",
"c.c.c.c.c.5.8.6.N.x.w.(.[.h.c.c.9.2.P.OXXXn.2.c.6.8.6.c.c.c.V x : g 4.b.c.c.c.c.c.2.2.M.n.n.b.2.c.c.c.c.0.r.r.5.S i S B.c.c.c.b.",
"c.c.c.b.c.I &.R N.x.q.g.j.r.9.c.c.2.M.P.K.n.c.B.R &.I B.c.c.<.S > i H c.v.b.c.c.B.2.n. XoXK.2.2.c.c.x.c.h.).k.w.A D 4.c.c.c.1.3.",
"c.c.c.1.c.R @.P 9.v.c.c.c.c.c.c.B.c.c.2.c.c.x.B.P @.R c.b.c.v.H g j 5.N.G C.<.b.c.2.n.XXOXP.B.2.c.c.z.c.j.[.'.V.c.c.c.c.c.B.7.y.",
"c.B.c.c.2.7.T G B.c.c.c.c.c.c.c.c.c.c.2.c.c.c.B.G Y 7.c.b.c.c.<.J 4.9.Y &.P 6.v.c.2.c.K.K.n.2.c.B.c.2.c.r.h.f.B.c.x.c.c.x.7.*.@.",
"c.c.c.c.c.b.m.b.c.c.c.c.c.1.N.c.c.c.c.B.c.c.c.B.b.b.c.c.B.c.c.c.b.b.c.R $.-.6.v.c.c.2.2.2.2.c.c.c.c.c.c.x.x.c.c.c.c.c.b.v.U @.#."
};
