/* XPM */
static char *result[] = {
/* columns rows colors chars-per-pixel */
"34 34 2 1 ",
"  c #69C9E0",
". c #99D9EA",
/* pixels */
"..................................",
"..................................",
"..................................",
"..................................",
"......  .................  .......",
"....  ..  .............  ..  .....",
"..................................",
"..................................",
"................  ................",
"..............  ..  ..............",
".....  ...........................",
"...  ..  .........................",
"..................................",
"..................................",
"........................  ........",
"......................  ..  ......",
"..................................",
"............  ....................",
"..........  ..  ..................",
"..................................",
"..................................",
"..................................",
"..................................",
".....  .................  ........",
"...  ..  .............  ..  ......",
"..................................",
"..................................",
"..................................",
".............  ...................",
"...........  ..  .................",
"...........................  .....",
".........................  ..  ...",
"..................................",
".................................."
};
