/* XPM */
static char *result[] = {
/* columns rows colors chars-per-pixel */
"64 64 60 1 ",
"  c #99D9EA",
". c #9AD9EA",
"X c #9BDAEA",
"o c #98D9EA",
"O c #97D8EA",
"+ c #9CDAEB",
"@ c #8AD4E7",
"# c #80D1E5",
"$ c #7FD0E5",
"% c #85D2E6",
"& c #94D7E9",
"* c #95D8E9",
"= c #87D3E6",
"- c #89D4E7",
"; c #96D8E9",
": c #92D7E9",
"> c #7DD0E4",
", c #6ECBE1",
"< c #6CCAE1",
"1 c #76CDE3",
"2 c #8CD5E7",
"3 c #8ED5E8",
"4 c #78CEE3",
"5 c #6DCAE1",
"6 c #7BCFE4",
"7 c #90D6E8",
"8 c #8BD4E7",
"9 c #7ED0E4",
"0 c #7CCFE4",
"q c #82D1E5",
"w c #81D1E5",
"e c #86D3E6",
"r c #88D3E6",
"t c #71CCE2",
"y c #73CCE2",
"u c #88D3E7",
"i c #79CEE3",
"p c #93D7E9",
"a c #6FCBE1",
"s c #77CEE3",
"d c #8DD5E8",
"f c #75CDE2",
"g c #70CBE1",
"h c #8FD6E8",
"j c #84D2E6",
"k c #9BDAEB",
"l c #8DD5E7",
"z c #91D6E8",
"x c #72CCE2",
"c c #92D7E8",
"v c #7ACFE4",
"b c #83D2E5",
"n c #7ACFE3",
"m c #9DDAEB",
"M c #75CDE3",
"N c #74CDE2",
"B c #97D8E9",
"V c #83D2E6",
"C c #70CBE2",
"Z c white",
/* pixels */
"                                                                ",
"                                                                ",
"                                                                ",
"                                                                ",
"                                                                ",
"           ..X.                                .X..             ",
"           oOOo                                oOOo             ",
"       .X+o@#$%&XX.                        .X+*=$#-O+X.         ",
"       o;O:>,<12O;O                        O;O345567O;O         ",
"     .o890>#qqw900e*.                    .;r>09wqq#90>-O.       ",
"     .o%t<yuo.7i5,0pX                    X*$a5sd. 8f<gq;.       ",
"     .ohej=:.k;8j%2;.                    .Ol%j-*XX&uje3o.       ",
"                                                                ",
"       ....    ....           .XX.         ....    ....         ",
"                           ..o:hh:o..                           ",
"                          ..+&$yy$&+..                          ",
"          ...            oz22r6yy6r22zo                         ",
"          ...           .;qxgs=77=sgxq;.                        ",
"      .X 7-r8*...       .;%sf>7++7>fs%;.                        ",
"       .;qt512..         o*czpO..Opzc*o                         ",
"     z=%%$vi6q%%@*.       .XX.    .XX.                          ",
"   . =x<tbp;h6,5nz.                                             ",
"   . d$6$d.m;e00jp.                                             ",
"     o;;;o   O;;Oo                                              ",
"     ..XX.   .XX.                            .XX.               ",
"                                            o;**;o              ",
"                                         .X+;%vvb&+X.           ",
"                                         ;p&36a,i2&p*o          ",
"                                       .O=isvq=rb6s4%;.         ",
"                                       .;bx,sl.Xhiat#*.         ",
"                      ..X..             oz8-l*.X;d-@7o.         ",
"                   .. &3l3*...           ....    ....           ",
"                   .X uMg1@.X.            ...    ...            ",
"                  &2@@wsNsq@@l*                                 ",
"                ..2sat$3p39ta43..                               ",
"                . h>1iromoe4197.                                ",
"                  O&pp; . ;pp&O                                 ",
"                  ..XX.   .XX.                                  ",
"                                                                ",
"                                                                ",
"                                                                ",
"         .XX..                               .XX.               ",
"         ;&&*O                              o;&&*o              ",
"     .X+ -v497XX.                        .X+;ji4q&+X.           ",
"     ;:p7$t,M=::&o                       *:pl6aai8p:&o          ",
"   . 8if4wu@e011$:.                    .OesMib--jvMsj;.         ",
"   . -MaNr +&9tg0z.                    .BVya4dXXhngxw*.         ",
"     &l8l&.Xo728h;                      o:283*..;h82zo          ",
"     .....   ....                        ....    ....           ",
"       .      ..                           .      ..            ",
"                        ....                                    ",
"                                                                ",
"                    ..X hejrpXX.                                ",
"                     o ;bC<N@o o                                ",
"                  . 7jwq$>0>#qw=&.                 .XX.         ",
"                  . -y<Cb* z0,<4h.                oOBOo         ",
"                  . 7b9w3.+O-#$ep.             .XXcb>$8 +X.     ",
"                    ooOOo   oOOo              o;;;-N<a#p;*O     ",
"                    ..X..   ..X.             .pbv69qjV#0v9l .   ",
"                                             .zv,,0:Xoex5yr .   ",
"                                             .*2e=dOk.cueuc     ",
"                                                                ",
"                                               ....    ...      ",
"                                                                "
};
